<?xml version="1.0" encoding="UTF-8"?>
<svg version="1.1" xmlns="http://www.w3.org/2000/svg" width="500" height="500">
<path d="M0 0 C0.62777344 0.46664062 1.25554687 0.93328125 1.90234375 1.4140625 C6.38101764 5.56133346 7.78602684 10.13486937 8.96875 15.97265625 C9.21760956 17.14685371 9.21760956 17.14685371 9.47149658 18.34477234 C11.28356703 27.0586741 12.81482739 35.82448526 14.29248047 44.6003418 C14.75741731 47.35646951 15.23182944 50.11085985 15.70703125 52.86523438 C16.00836786 54.63532221 16.30916982 56.40550117 16.609375 58.17578125 C16.74994324 58.99033279 16.89051147 59.80488434 17.03533936 60.64411926 C17.67452033 64.47401943 18.17395468 68.10019026 18 72 C19.27875 71.95359375 20.5575 71.9071875 21.875 71.859375 C23.58330979 71.82182973 25.29164508 71.78543255 27 71.75 C27.83917969 71.71648437 28.67835938 71.68296875 29.54296875 71.6484375 C36.72332348 71.53711417 41.77708029 73.2262677 47.2421875 77.9296875 C47.78101563 78.57164063 48.31984375 79.21359375 48.875 79.875 C49.42929687 80.51179688 49.98359375 81.14859375 50.5546875 81.8046875 C54.14756885 87.26198295 54.29098434 92.67307723 54.26742554 98.97505188 C54.27195665 99.8681263 54.27648776 100.76120073 54.28115618 101.68133801 C54.29379726 104.66822679 54.29217999 107.65493316 54.29052734 110.6418457 C54.29651277 112.78573847 54.30331835 114.92962907 54.31088257 117.07351685 C54.32854827 122.89383968 54.33323819 128.71410371 54.33451414 134.53445077 C54.33593597 138.17186548 54.34020617 141.80926525 54.34550858 145.44667625 C54.36401071 158.13950932 54.37217895 170.83230038 54.37060547 183.52514648 C54.36940401 195.35170399 54.39050687 207.17807901 54.4220928 219.00459033 C54.44825491 229.16273841 54.45897279 239.32082687 54.45769465 249.47900838 C54.457185 255.54404216 54.46286999 261.60891377 54.48405075 267.67391396 C54.50343187 273.3793362 54.50355821 279.08444153 54.48901749 284.78987503 C54.48692816 286.88081641 54.49163763 288.97177761 54.5037384 291.06268501 C54.51921915 293.92349296 54.50986388 296.78321199 54.49447632 299.64399719 C54.50476344 300.46580658 54.51505057 301.28761596 54.52564943 302.13432866 C54.44409746 309.02446261 52.50605956 315.01564677 48.03515625 320.33984375 C47.38417969 320.86707031 46.73320312 321.39429688 46.0625 321.9375 C45.41410156 322.48277344 44.76570313 323.02804687 44.09765625 323.58984375 C40.03022577 326.32418715 36.46918893 327.2498832 31.59695721 327.25726891 C29.98009597 327.26694224 29.98009597 327.26694224 28.33057088 327.276811 C27.15217997 327.2737138 25.97378906 327.2706166 24.75968933 327.26742554 C23.50332761 327.27195665 22.24696588 327.27648776 20.95253259 327.28115618 C17.46756307 327.29338951 13.98268953 327.29312534 10.49770343 327.29076743 C6.73821526 327.29035935 2.97875789 327.30139761 -0.78071594 327.31088257 C-8.14547288 327.32749543 -15.5101978 327.33299225 -22.8749719 327.33410732 C-28.86163128 327.33505768 -34.8482801 327.33916733 -40.83493614 327.34550858 C-57.80883421 327.36312187 -74.78270698 327.37234732 -91.75661425 327.37084763 C-92.67168008 327.37076772 -93.58674591 327.3706878 -94.52954102 327.37060547 C-95.44572437 327.37052371 -96.36190773 327.37044195 -97.30585422 327.37035771 C-112.15378669 327.36954481 -127.00161771 327.38868311 -141.84952084 327.4168822 C-157.09585231 327.44560946 -172.3421343 327.45942258 -187.58849353 327.45769465 C-196.1479198 327.45703069 -204.70723972 327.46252572 -213.26664162 327.48405075 C-220.55442518 327.50226049 -227.8420542 327.50661164 -235.12985066 327.4930319 C-238.84734887 327.48650111 -242.56455056 327.48638873 -246.28202057 327.5037384 C-250.31448432 327.5223644 -254.34626135 327.50991764 -258.3787384 327.49447632 C-259.55043715 327.50476344 -260.72213589 327.51505057 -261.92934066 327.52564943 C-269.77549214 327.45918203 -275.13902408 326.32286081 -281.2421875 321.0703125 C-281.78101563 320.42835938 -282.31984375 319.78640625 -282.875 319.125 C-283.42929687 318.48820312 -283.98359375 317.85140625 -284.5546875 317.1953125 C-288.14756885 311.73801705 -288.29098434 306.32692277 -288.26742554 300.02494812 C-288.27195665 299.1318737 -288.27648776 298.23879927 -288.28115618 297.31866199 C-288.29379726 294.33177321 -288.29217999 291.34506684 -288.29052734 288.3581543 C-288.29651277 286.21426153 -288.30331835 284.07037093 -288.31088257 281.92648315 C-288.32854827 276.10616032 -288.33323819 270.28589629 -288.33451414 264.46554923 C-288.33593597 260.82813452 -288.34020617 257.19073475 -288.34550858 253.55332375 C-288.36401071 240.86049068 -288.37217895 228.16769962 -288.37060547 215.47485352 C-288.36940401 203.64829601 -288.39050687 191.82192099 -288.4220928 179.99540967 C-288.44825491 169.83726159 -288.45897279 159.67917313 -288.45769465 149.52099162 C-288.457185 143.45595784 -288.46286999 137.39108623 -288.48405075 131.32608604 C-288.50343187 125.6206638 -288.50355821 119.91555847 -288.48901749 114.21012497 C-288.48692816 112.11918359 -288.49163763 110.02822239 -288.5037384 107.93731499 C-288.51921915 105.07650704 -288.50986388 102.21678801 -288.49447632 99.35600281 C-288.50476344 98.53419342 -288.51505057 97.71238404 -288.52564943 96.86567134 C-288.45735653 91.09576508 -287.27237754 84.27237754 -283 80 C-282.87670621 76.79436157 -282.83551286 73.8037136 -283.48046875 70.65234375 C-285.17794181 61.98629706 -284.75856519 54.78611686 -280.09375 47.21875 C-274.81993737 41.63008289 -268.76167895 39.24960031 -261.31420898 38.06604004 C-260.48325525 37.91929809 -259.65230152 37.77255613 -258.79616737 37.62136745 C-256.05285291 37.14080238 -253.30604122 36.68480362 -250.55859375 36.22851562 C-248.59357237 35.88877699 -246.62885084 35.54730001 -244.66441345 35.20420074 C-240.53133892 34.48466963 -236.39681664 33.77447468 -232.26092529 33.07131958 C-226.23040706 32.04361446 -220.20645039 30.98130524 -214.18408203 29.90698242 C-212.2124816 29.55551265 -210.24087819 29.20405958 -208.26927185 28.85262299 C-207.28624022 28.67738948 -206.30320858 28.50215597 -205.29038811 28.32161236 C-184.34410936 24.59615988 -163.3859698 20.93637555 -142.43077087 17.2614975 C-129.24772824 14.94947924 -116.06593626 12.63056765 -102.88564014 10.3029418 C-93.51178869 8.64812397 -84.1365866 7.00110662 -74.76035595 5.3598237 C-69.1974059 4.38582391 -63.63509977 3.40845348 -58.07424927 2.42253113 C-52.87472476 1.50082047 -47.6735901 0.58881104 -42.47108078 -0.31589508 C-40.57263857 -0.64774216 -38.67479498 -0.98303655 -36.77763748 -1.32215118 C-8.52019199 -6.36714131 -8.52019199 -6.36714131 0 0 Z " fill="#6FA01D" transform="translate(367,48)"/>
<path d="M0 0 C0.62777344 0.46664062 1.25554687 0.93328125 1.90234375 1.4140625 C6.38101764 5.56133346 7.78602684 10.13486937 8.96875 15.97265625 C9.21760956 17.14685371 9.21760956 17.14685371 9.47149658 18.34477234 C11.28356703 27.0586741 12.81482739 35.82448526 14.29248047 44.6003418 C14.75741731 47.35646951 15.23182944 50.11085985 15.70703125 52.86523438 C16.00836786 54.63532221 16.30916982 56.40550117 16.609375 58.17578125 C16.74994324 58.99033279 16.89051147 59.80488434 17.03533936 60.64411926 C17.16257385 61.40649399 17.28980835 62.16886871 17.42089844 62.9543457 C17.53318787 63.61731155 17.64547729 64.2802774 17.76116943 64.96333313 C18.03771875 67.32165285 18.01492691 69.62729182 18 72 C17.08988817 72.00146521 17.08988817 72.00146521 16.16139024 72.00296003 C-19.7961319 72.06122745 -55.75358953 72.13502073 -91.71103654 72.22898628 C-96.02814191 72.24025449 -100.3452476 72.25139294 -104.66235352 72.26245117 C-105.5218144 72.26465486 -106.38127528 72.26685854 -107.26678043 72.269129 C-121.18447352 72.30450489 -135.10216655 72.32936738 -149.01988793 72.35034702 C-163.29992444 72.37210674 -177.57990258 72.4051588 -191.85988945 72.44870156 C-200.6719618 72.47521532 -209.48396143 72.49291272 -218.2960717 72.49934604 C-224.33822473 72.50460076 -230.38028624 72.52082059 -236.42239023 72.54566566 C-239.9087858 72.55967779 -243.39501754 72.56885257 -246.88144302 72.56500816 C-250.66269601 72.56336076 -254.44344118 72.58001037 -258.22462463 72.60127258 C-259.87492946 72.59400122 -259.87492946 72.59400122 -261.55857378 72.58658296 C-269.84395601 72.66361255 -274.97984 74.53262546 -282 79 C-284.50686191 67.8310349 -286.34651117 57.36211813 -280.09375 47.21875 C-274.81993737 41.63008289 -268.76167895 39.24960031 -261.31420898 38.06604004 C-260.48325525 37.91929809 -259.65230152 37.77255613 -258.79616737 37.62136745 C-256.05285291 37.14080238 -253.30604122 36.68480362 -250.55859375 36.22851562 C-248.59357237 35.88877699 -246.62885084 35.54730001 -244.66441345 35.20420074 C-240.53133892 34.48466963 -236.39681664 33.77447468 -232.26092529 33.07131958 C-226.23040706 32.04361446 -220.20645039 30.98130524 -214.18408203 29.90698242 C-212.2124816 29.55551265 -210.24087819 29.20405958 -208.26927185 28.85262299 C-207.28624022 28.67738948 -206.30320858 28.50215597 -205.29038811 28.32161236 C-184.34410936 24.59615988 -163.3859698 20.93637555 -142.43077087 17.2614975 C-129.24772824 14.94947924 -116.06593626 12.63056765 -102.88564014 10.3029418 C-93.51178869 8.64812397 -84.1365866 7.00110662 -74.76035595 5.3598237 C-69.1974059 4.38582391 -63.63509977 3.40845348 -58.07424927 2.42253113 C-52.87472476 1.50082047 -47.6735901 0.58881104 -42.47108078 -0.31589508 C-40.57263857 -0.64774216 -38.67479498 -0.98303655 -36.77763748 -1.32215118 C-8.52019199 -6.36714131 -8.52019199 -6.36714131 0 0 Z " fill="#598018" transform="translate(367,48)"/>
<path d="M0 0 C55.62470588 0 55.62470588 0 67.8125 11.1875 C75.19307951 19.39008718 76.93313131 27.15699517 76.421875 37.92578125 C75.76966767 45.87868024 72.79490134 52.45705089 67 58 C55.3519799 65.9960006 45.89619789 67.16394772 32.0625 67.0625 C28.081875 67.041875 24.10125 67.02125 20 67 C20 82.84 20 98.68 20 115 C13.4 115 6.8 115 0 115 C0 77.05 0 39.1 0 0 Z " fill="#FFFFFF" transform="translate(245,174)"/>
<path d="M0 0 C1.18916016 0.36738281 1.18916016 0.36738281 2.40234375 0.7421875 C16.04229564 5.49200125 25.53225151 16.45440275 32 29 C32 29.66 32 30.32 32 31 C29.04657157 32.19996934 26.08658106 33.38281104 23.125 34.5625 C22.28324219 34.90474609 21.44148438 35.24699219 20.57421875 35.59960938 C19.76855469 35.91865234 18.96289062 36.23769531 18.1328125 36.56640625 C17.38918457 36.86490479 16.64555664 37.16340332 15.87939453 37.47094727 C14 38 14 38 12 37 C11.10546875 35.328125 11.10546875 35.328125 10.1875 33.25 C7.07460439 26.81744818 1.88259365 21.72155195 -4.9609375 19.30859375 C-15.65313028 16.54869561 -26.62642129 17.11296969 -36.4453125 22.2890625 C-45.33619255 27.77617329 -48.53303689 34.04880422 -51 44 C-51.18691406 44.61359375 -51.37382812 45.2271875 -51.56640625 45.859375 C-54.0605637 58.17287303 -52.02206851 71.79937494 -45.703125 82.55078125 C-40.99957427 89.31483242 -34.93599982 92.91408004 -26.875 94.6875 C-16.22289239 95.54654094 -7.42916394 95.72386198 2 90 C6.86159269 85.80534061 10.0582918 80.64807974 13 75 C19.45353615 77.05764921 25.7361263 79.42383482 32 82 C29.81333095 91.23260267 22.4762267 100.32486428 15 106 C-0.33789427 115.21333128 -16.50748074 117.63757474 -34.34033203 114.6015625 C-38.18950026 113.59650728 -41.57341393 111.99183454 -45 110 C-45.81984375 109.54238281 -46.6396875 109.08476562 -47.484375 108.61328125 C-60.99524315 100.33900797 -67.06830889 88.64332898 -72 74 C-76.01123908 56.82421562 -73.77596352 37.28090745 -65.0078125 22.07421875 C-57.26734565 10.22257009 -46.98870997 1.97632127 -33 -1 C-22.687406 -3.10071359 -10.03367482 -3.41655464 0 0 Z " fill="#FFFF" transform="translate(194,175)"/>
<path d="M0 0 C5.66581392 5.17924593 8.95674928 9.95943216 9.4375 17.6875 C9.29206614 24.18354562 6.87180325 29.78173255 2.54296875 34.6328125 C1.0625 35.9375 1.0625 35.9375 -2 38 C-2.886875 38.598125 -3.77375 39.19625 -4.6875 39.8125 C-10.76190852 41.99011815 -17.27175156 42.11693754 -23.25 39.5 C-28.64426556 36.36999406 -32.61907014 31.70181929 -35.4375 26.1875 C-36.94486961 17.6457389 -36.7327761 11.52506777 -31.78515625 4.16796875 C-23.71031179 -5.63846161 -10.49402915 -6.97658604 0 0 Z " fill="#FFFFFF" transform="translate(375,216)"/>
<path d="M0 0 C5.754375 -0.0928125 5.754375 -0.0928125 11.625 -0.1875 C13.42251709 -0.22846802 13.42251709 -0.22846802 15.25634766 -0.27026367 C20.88772647 -0.31423666 25.20662686 -0.3324604 30 3 C33.92706934 7.35161737 35.33919234 9.96275623 35.19921875 15.90625 C34.87276769 19.33718668 34.07578843 21.2322821 32 24 C25.30244468 28.35266179 18.69456434 28.50248024 10.9375 28.25 C7.328125 28.1675 3.71875 28.085 0 28 C0 18.76 0 9.52 0 0 Z " fill="#6FA01D" transform="translate(266,194)"/>
<path d="M0 0 C2.31 0 4.62 0 7 0 C7 5.28 7 10.56 7 16 C12.61 16 18.22 16 24 16 C24 10.72 24 5.44 24 0 C26.64 0 29.28 0 32 0 C32 13.2 32 26.4 32 40 C29.36 40 26.72 40 24 40 C24 34.72 24 29.44 24 24 C18.39 24 12.78 24 7 24 C7 29.28 7 34.56 7 40 C4.69 40 2.38 40 0 40 C0 26.8 0 13.6 0 0 Z " fill="#27380A" transform="translate(267,401)"/>
<path d="M0 0 C2.64 0 5.28 0 8 0 C8.01981934 0.86278564 8.03963867 1.72557129 8.06005859 2.61450195 C8.13819644 5.81836956 8.22489082 9.02185894 8.31738281 12.2253418 C8.3556435 13.61131907 8.39050156 14.99739465 8.421875 16.38354492 C8.46758699 18.3770164 8.52658925 20.37016914 8.5859375 22.36328125 C8.6173584 23.56251221 8.6487793 24.76174316 8.68115234 25.99731445 C8.78429494 29.17882706 8.78429494 29.17882706 11 32 C13.13253645 32.47687303 13.13253645 32.47687303 15.5 32.375 C16.2940625 32.38273437 17.088125 32.39046875 17.90625 32.3984375 C18.94265625 32.20121094 18.94265625 32.20121094 20 32 C22.38948197 28.41577704 22.30233168 26.62767404 22.4140625 22.36328125 C22.45273438 21.06455078 22.49140625 19.76582031 22.53125 18.42773438 C22.56270517 17.05599427 22.59395251 15.68424939 22.625 14.3125 C22.66319197 12.92901215 22.70224442 11.54554777 22.7421875 10.16210938 C22.83660517 6.7748755 22.92218118 3.38764931 23 0 C25.64 0 28.28 0 31 0 C31.07453622 4.1625612 31.12878254 8.3247618 31.16479492 12.48779297 C31.17981825 13.90192437 31.20024305 15.31600968 31.22631836 16.72998047 C31.26298954 18.77062397 31.27979036 20.81064792 31.29296875 22.8515625 C31.3086792 24.07697754 31.32438965 25.30239258 31.34057617 26.56494141 C30.84122273 31.60143095 29.21925947 34.84326666 25.5625 38.3125 C21.09211108 41.25641465 17.33487624 41.36168653 12 41 C6.82919995 39.3348271 3.97101898 37.57079843 1 33 C-0.15927528 29.52217417 -0.11313066 26.81196743 -0.09765625 23.14453125 C-0.0962413 22.48289474 -0.09482635 21.82125824 -0.09336853 21.13957214 C-0.08777996 19.03050172 -0.07522965 16.92153823 -0.0625 14.8125 C-0.05748352 13.38086091 -0.05292087 11.94922015 -0.04882812 10.51757812 C-0.0378143 7.01168412 -0.02055755 3.5058525 0 0 Z " fill="#27380A" transform="translate(139,401)"/>
<path d="M0 0 C2.05760258 1.90813993 3.39762536 3.64651225 5 6 C5 6.99 5 7.98 5 9 C2.69 9.66 0.38 10.32 -2 11 C-2.680625 9.7934375 -2.680625 9.7934375 -3.375 8.5625 C-4.74725665 5.91143428 -4.74725665 5.91143428 -7 5 C-11.88852762 4.47221206 -15.7665435 4.26999514 -20.0625 6.8125 C-23.33213921 10.50402814 -23.27624845 14.01013553 -23.22265625 18.7109375 C-22.90394604 21.98750207 -21.79746173 24.27052107 -20 27 C-15.77845244 29.81436504 -11.96024032 29.68304949 -7 29 C-4.42362529 27.11484777 -3.40332572 25.80665143 -2 23 C0.31 23.66 2.62 24.32 5 25 C4.91802415 27.78717889 4.43764605 29.51752767 2.55078125 31.59765625 C-2.62063703 36.16331187 -6.76531758 38.47439076 -13.8828125 38.24609375 C-19.19867538 37.62819825 -22.89442286 36.03187199 -26.8125 32.375 C-31.43170949 26.00205674 -32.64413367 19.38278427 -31.63671875 11.6484375 C-30.25567174 5.90395976 -27.51486333 2.20570755 -22.9375 -1.4375 C-15.0817985 -5.61606463 -7.26775547 -5.06728366 0 0 Z " fill="#27380A" transform="translate(89,404)"/>
<path d="M0 0 C3.86550221 2.57700147 5.63728856 4.54021709 7 9 C4.69 9.99 2.38 10.98 0 12 C-0.2475 11.195625 -0.495 10.39125 -0.75 9.5625 C-1.69055185 6.88072219 -1.69055185 6.88072219 -3.765625 6.359375 C-8.79550581 5.55037319 -14.01486424 4.80891854 -18.5 7.5 C-21.40836749 12.34727915 -22.5254872 16.74409696 -21.375 22.25 C-19.7332792 26.99978292 -19.7332792 26.99978292 -16 30 C-12.54950821 30.61303154 -9.4446434 30.66994685 -6 30 C-2.97590636 27.72872666 -2.97590636 27.72872666 -1 25 C-0.34 24.67 0.32 24.34 1 24 C3.03144641 24.93446535 5.03533587 25.93224776 7 27 C4.86230283 32.40711638 2.02669487 35.28666578 -3 38 C-8.86552978 39.80390568 -14.43489257 39.42376246 -20.07421875 37.11328125 C-25.13929057 34.18519713 -28.21675765 29.47131176 -30 24 C-30.87242765 16.64523206 -30.55888134 10.04577802 -26 4 C-18.48036439 -4.05528089 -9.55057313 -5.0455858 0 0 Z " fill="#27380A" transform="translate(249,403)"/>
<path d="M0 0 C1.4540625 0.0309375 1.4540625 0.0309375 2.9375 0.0625 C4.43125496 3.7244349 5.92456024 7.38655284 7.41748047 11.04882812 C8.17001937 12.89462423 8.92289629 14.74028252 9.67578125 16.5859375 C10.6444672 18.96244702 11.61129567 21.33971459 12.57617188 23.71777344 C13.43944928 25.8388101 14.30971191 27.95702801 15.18945312 30.07128906 C15.73762695 31.40111816 15.73762695 31.40111816 16.296875 32.7578125 C16.61624023 33.52367676 16.93560547 34.28954102 17.26464844 35.07861328 C17.9375 37.0625 17.9375 37.0625 17.9375 40.0625 C15.2975 40.0625 12.6575 40.0625 9.9375 40.0625 C8.68085022 37.15649739 7.9375 35.26645416 7.9375 32.0625 C2.6575 32.0625 -2.6225 32.0625 -8.0625 32.0625 C-8.7225 34.3725 -9.3825 36.6825 -10.0625 39.0625 C-11.0625 40.0625 -11.0625 40.0625 -12.91015625 40.16015625 C-14.9609375 40.12760417 -17.01171875 40.09505208 -19.0625 40.0625 C-16.65045715 32.43842051 -13.74404815 25.03612249 -10.76416016 17.62109375 C-9.92870738 15.54060415 -9.09889716 13.45792249 -8.26953125 11.375 C-7.73991558 10.05195029 -7.20997967 8.72902871 -6.6796875 7.40625 C-6.20128418 6.21193359 -5.72288086 5.01761719 -5.22998047 3.78710938 C-3.63904716 0.07426627 -3.63904716 0.07426627 0 0 Z M-1.0625 12.0625 C-1.73307887 13.8527061 -2.3988469 15.64471489 -3.0625 17.4375 C-3.43375 18.43523437 -3.805 19.43296875 -4.1875 20.4609375 C-5.16876277 22.92098061 -5.16876277 22.92098061 -5.0625 25.0625 C-1.7625 25.0625 1.5375 25.0625 4.9375 25.0625 C4.32166344 23.08046291 3.69456166 21.1019228 3.0625 19.125 C2.71445312 18.02285156 2.36640625 16.92070312 2.0078125 15.78515625 C1.23725705 12.93371196 1.23725705 12.93371196 -1.0625 12.0625 Z " fill="#27380A" transform="translate(384.0625,400.9375)"/>
<path d="M0 0 C18 0 18 0 25 4 C27.3906456 6.91035117 27.48300537 10.24894136 27.37890625 13.96875 C26.6917493 17.65247799 24.69497146 19.53937388 22 22 C16.97018265 24.45902182 14.00304597 24 8 24 C8 29.28 8 34.56 8 40 C5.36 40 2.72 40 0 40 C0 26.8 0 13.6 0 0 Z M8 7 C8 9.97 8 12.94 8 16 C11.3 16 14.6 16 18 16 C18.66 14.35 19.32 12.7 20 11 C18.50520579 8.83341465 18.50520579 8.83341465 16 7 C13.24128373 6.64199865 10.79902476 6.81339835 8 7 Z " fill="#27380A" transform="translate(332,401)"/>
<path d="M0 0 C3.3 0 6.6 0 10 0 C11.33858524 2.28874173 12.67101014 4.58069656 14 6.875 C14.3815625 7.52597656 14.763125 8.17695313 15.15625 8.84765625 C18 13.7734375 18 13.7734375 18 16 C20.98237935 13.38355676 22.68171617 10.30675655 24.625 6.875 C27.91666667 1.08333333 27.91666667 1.08333333 29 0 C30.51928038 -0.07179964 32.04167482 -0.08392007 33.5625 -0.0625 C34.38878906 -0.05347656 35.21507812 -0.04445313 36.06640625 -0.03515625 C36.70449219 -0.02355469 37.34257812 -0.01195312 38 0 C37.17188123 1.56526994 36.33702839 3.12697632 35.5 4.6875 C34.68982422 6.2034375 34.68982422 6.2034375 33.86328125 7.75 C32 11 32 11 29.85546875 14.0625 C23.78889347 22.80711301 22.78760959 29.65924196 23 40 C20.36 40 17.72 40 15 40 C15.06703125 38.99324219 15.1340625 37.98648438 15.203125 36.94921875 C15.52499567 24.14061397 10.72800455 16.10523854 3.31274414 5.9284668 C2 4 2 4 0 0 Z " fill="#27380A" transform="translate(407,401)"/>
<path d="M0 0 C10.89 0 21.78 0 33 0 C33 2.31 33 4.62 33 7 C28.71 7 24.42 7 20 7 C20 17.89 20 28.78 20 40 C17.69 40 15.38 40 13 40 C13 29.11 13 18.22 13 7 C8.71 7 4.42 7 0 7 C0 4.69 0 2.38 0 0 Z " fill="#27380A" transform="translate(179,401)"/>
<path d="M0 0 C2.64 0 5.28 0 8 0 C8 10.89 8 21.78 8 33 C13.61 33 19.22 33 25 33 C25 35.31 25 37.62 25 40 C16.75 40 8.5 40 0 40 C0 26.8 0 13.6 0 0 Z " fill="#27380A" transform="translate(105,401)"/>
</svg>
